/* XPM */
static char *Au3dhyDJ[] = {
/* columns rows colors chars-per-pixel */
"32 32 53 1 ",
"  c #E5AF3F",
". c #EDB738",
"X c #ECB533",
"o c #E4AF41",
"O c #E7B446",
"+ c #EDBD44",
"@ c #E7B649",
"# c #E8B74A",
"$ c #E7B84A",
"% c #E8BA4C",
"& c #EABE52",
"* c #EEC047",
"= c #EFC24D",
"- c #F0C44F",
"; c #EEC352",
": c #EDC55B",
"> c #EEC95E",
", c #F0C653",
"< c #F0C857",
"1 c #F1CB5D",
"2 c #EFCC62",
"3 c #F1CD61",
"4 c #F1D066",
"5 c #F2D26B",
"6 c #F3D672",
"7 c #F4DA74",
"8 c #F5DC7B",
"9 c #F6E17A",
"0 c #F6DF82",
"q c #F7E385",
"w c #F8E781",
"e c #F9E984",
"r c #F6E48C",
"t c #F8E78B",
"y c #FBEE8A",
"u c #FCF18D",
"i c #F7E791",
"p c #F7E894",
"a c #F8E995",
"s c #F8EB9B",
"d c #FDF592",
"f c #FEF996",
"g c #FFFB99",
"h c #F9EFA2",
"j c #F9F1A5",
"k c #FAF5AD",
"l c #FAF7B2",
"z c #FBF9B4",
"x c #FBFCBA",
"c c #FCFFC1",
"v c #FDFFCD",
"b c #FEFFD3",
"n c None",
/* pixels */
"nnnnnnnnnnnn1311&&&&nnnnnnnnnnnn",
"nnnnnnnnn3131,,,###%&&&nnnnnnnnn",
"nnnnnnn131,,158853:&@$&&&nnnnnnn",
"nnnnnn13,,5tjzxxddue7:@$&&nnnnnn",
"nnnnn31=3sxcxllkyuudfd9;O&&nnnnn",
"nnnn31=7xxlkkklkyyyuyugu2O&&nnnn",
"nnn31,8cxkzzzllkuyuuduudf2O&&nnn",
"nn11;7czxxkjkxxkuduywydddf2@;&nn",
"nn3,3zxxj73136sxd72&&:3edfu&%&nn",
"n11,acxa,-1,,,&tw O%$$O#9dg9@&&n",
"n1,5xcs,11174<1,55$&&&&%@wfd:#&n",
"n1,icz5;13:6i3,1$65%&&&&@:dg7@&n",
"313jch,1111-as1,&@7>%&&&&&wgw%&&",
"1,5zci,311:p75i3$o55%&&&&$9gu:%&",
"1,7xxa,311t8,+ih:47;&&&&&@9dd2#&",
"3,8xxj1,<i8,-rt554;$&&&&%&ydd3@&",
"1&0xlx8+t0,-rs1+:2$;&&&&O4fud2$&",
"3,7xlxh08+-rs<-3t4$$&&&@&ydud2$&",
"1<5zzkzx5+0s<+5k2O%2;&@&yftuy:$&",
"113jzklzksi<-5l7O$77&@$ygyude$&&",
"n3-tcllkzv7X5k7+$69$@&ydyyyg7@&n",
"n1<5zlklkzj0h7&,77$O&efyyuud:$&n",
"n13,sckkkkzbi.,r9$O%yfyuuyg7@&&n",
"nn3,3zzklllzj5qt%O%yfyyyydy&%&nn",
"nn33-6czklkklck-O&ygyyyydf:@&&nn",
"nnn11-8cxkkllxk3&efyyuydf2O&&nnn",
"nnnn11-6lclklkzluuyyyugu>@&&nnnn",
"nnnnn31-1pxcxllluyudgd7&O&&nnnnn",
"nnnnnn13,;5rhlxxfuuw6:@%;&nnnnnn",
"nnnnnnn313,,15774>:%@%&&&nnnnnnn",
"nnnnnnnnn1311,,;@@%&&&&nnnnnnnnn",
"nnnnnnnnnnnn313>&&&;nnnnnnnnnnnn"
};
