/* XPM */
static char *WmP6jWBm[] = {
/* columns rows colors chars-per-pixel */
"16 16 162 2 ",
"   c #E5AF41",
".  c #E6B143",
"X  c #E6B346",
"o  c #E6B446",
"O  c #E7B447",
"+  c #E7B547",
"@  c #EEBE43",
"#  c #E7B548",
"$  c #E7B648",
"%  c #E7B74A",
"&  c #E8B74A",
"*  c #E8B74B",
"=  c #E7B84A",
"-  c #E8B84B",
";  c #E8B94B",
":  c #E8B94C",
">  c #E9B94C",
",  c #E9BA4D",
"<  c #E9BB4D",
"1  c #E9BA4E",
"2  c #E9BB4E",
"3  c #E9BB4F",
"4  c #E9BC4F",
"5  c #E9BC50",
"6  c #E9BD52",
"7  c #EABE52",
"8  c #EABE53",
"9  c #EFC24D",
"0  c #ECC252",
"q  c #EFC450",
"w  c #EFC551",
"e  c #EFC552",
"r  c #ECC155",
"t  c #ECC256",
"y  c #ECC559",
"u  c #EDC55A",
"i  c #EDC65C",
"p  c #EDC75C",
"a  c #EDC75D",
"s  c #EEC85D",
"d  c #EEC85E",
"f  c #EEC95E",
"g  c #EFCA5F",
"h  c #F0C550",
"j  c #F0C551",
"k  c #F0C552",
"l  c #F0C553",
"z  c #F0C653",
"x  c #F0C654",
"c  c #F0C655",
"v  c #F0C756",
"b  c #F0C856",
"n  c #F0C857",
"m  c #F1C95A",
"M  c #F1CA5A",
"N  c #F0CA5B",
"B  c #F1CA5B",
"V  c #F1CB5E",
"C  c #EFCA61",
"Z  c #EFCC61",
"A  c #EFCE64",
"S  c #F1CD62",
"D  c #F0CD63",
"F  c #F2CE63",
"G  c #F0CF65",
"H  c #F0CF66",
"J  c #F1CF68",
"K  c #F2D063",
"L  c #F2D065",
"P  c #F3D166",
"I  c #F2D168",
"U  c #F3D269",
"Y  c #F3D26B",
"T  c #F3D36C",
"R  c #F3D46D",
"E  c #F3D66D",
"W  c #F3D46E",
"Q  c #F3D46F",
"!  c #F3D76F",
"~  c #F3D86F",
"^  c #F3D570",
"/  c #F3D672",
"(  c #F3D772",
")  c #F3D773",
"_  c #F4D977",
"`  c #F5DE77",
"'  c #F6DF78",
"]  c #F6DF79",
"[  c #F5DC7D",
"{  c #F6E07B",
"}  c #F6E17B",
"|  c #F5E07D",
" . c #F6E17D",
".. c #F7E47F",
"X. c #F8E57F",
"o. c #F4DD81",
"O. c #F4DE86",
"+. c #F6E084",
"@. c #F6E085",
"#. c #F5E086",
"$. c #F6E187",
"%. c #F9E984",
"&. c #FAEC86",
"*. c #F6E288",
"=. c #F6E38A",
"-. c #F6E28B",
";. c #F6E48D",
":. c #FAEC88",
">. c #FBEF8B",
",. c #FCF18D",
"<. c #FCF18E",
"1. c #F7E994",
"2. c #F7E996",
"3. c #F7EA97",
"4. c #F8E990",
"5. c #F8E996",
"6. c #F8EA96",
"7. c #F8EB9A",
"8. c #FDF390",
"9. c #FDF490",
"0. c #FDF491",
"q. c #FDF692",
"w. c #FDF693",
"e. c #FDF595",
"r. c #FEF797",
"t. c #FEF895",
"y. c #FEF896",
"u. c #FFFA98",
"i. c #FFFB99",
"p. c #FFFB9B",
"a. c #FFFC98",
"s. c #FFFD99",
"d. c #FFFC9A",
"f. c #FFFD9C",
"g. c #FFFF9E",
"h. c #F9EEA0",
"j. c #F9EEA1",
"k. c #F9F2A7",
"l. c #FFFFA2",
"z. c #FAF3A9",
"x. c #FAF6AF",
"c. c #FAF6B0",
"v. c #FAF7B0",
"b. c #FAF7B2",
"n. c #FAF8B1",
"m. c #FAF8B4",
"M. c #FAFAB6",
"N. c #FBFBB8",
"B. c #FBFBB9",
"V. c #FBFCB9",
"C. c #FBFDB9",
"Z. c #FBFDBA",
"A. c #FBFDBB",
"S. c #FDFFC0",
"D. c #FCFFC2",
"F. c #FCFFC3",
"G. c #FCFFC4",
"H. c #FDFFC4",
"J. c #FCFFC6",
"K. c #FCFFC9",
"L. c #FEFFCF",
"P. c None",
/* pixels */
"P.P.P.P.P.z z z ; o ; P.P.P.P.P.",
"P.P.P.v z / -.5.{ ~ f $ : P.P.P.",
"P.P.z B 7.D.K.V.r.a.y.{ : ; P.P.",
"P.v B b.L.z.c.V.r.%.:.l.,.: : P.",
"P.w h.D./ B V 4. .: 5 C p.X.o P.",
"v ) D./ @ S U 9 u 7 : . Z p.f ; ",
"9 7.n.v v / o.H t A 7 : ; ,.` O ",
"v 7.n.z U W W o.C u 7 : : ,.X.& ",
"v 5.D.$.B L _ P H = 7 . H f.{ = ",
"9 =.G.N.$.L S [ u f o a 9.f.( o ",
"v / V.M.D.$.W S S 8 u 0.y.8.f = ",
"P.z 5.G.x.G.=.L 7 r r.0.p.' $ P.",
"P.n B k.G.m.D.O.0 9.9.p.%.: : P.",
"P.P.v B 2.B.G.V.f.f.9.` : ; P.P.",
"P.P.P.n z T =.5. .E a & : P.P.P.",
"P.P.P.P.P.z z v : . ; P.P.P.P.P."
};
