/* XPM */
static char *QkGYtEIo[] = {
/* columns rows colors chars-per-pixel */
"128 128 48 1 ",
"  c #E7B447",
". c #E7B648",
"X c #E8B74A",
"o c #E9BA4D",
"O c #EEBE45",
"+ c #EABE52",
"@ c #EFC34D",
"# c #F0C44F",
"$ c #EEC352",
"% c #ECC55A",
"& c #EEC85D",
"* c #F0C653",
"= c #F0C857",
"- c #F1CC5F",
"; c #EFCC62",
": c #F1CD61",
"> c #F2D066",
", c #F2D36C",
"< c #F3D672",
"1 c #F4D974",
"2 c #F4DB7B",
"3 c #F7E27C",
"4 c #F8E57F",
"5 c #F5DE82",
"6 c #F6E284",
"7 c #F8E681",
"8 c #F9EA85",
"9 c #F6E38B",
"0 c #FBEF8B",
"q c #FCF18E",
"w c #F7E692",
"e c #F7E995",
"r c #F8EA97",
"t c #F7EB99",
"y c #F8EC9C",
"u c #FDF592",
"i c #FEF895",
"p c #FFFC9B",
"a c #F8EEA1",
"s c #F9F1A5",
"d c #FAF6AF",
"f c #FBF8AE",
"g c #FAF7B1",
"h c #FBF9B5",
"j c #FBFDBB",
"k c #FDFFC5",
"l c #FDFFCA",
"z c None",
/* pixels */
"zzzzzzzzzzzzzzzzzzzzzzzzzzzzzzzzzzzzzzzzzzzzzzzzzzzzzzz-------:-+++++++++zzzzzzzzzzzzzzzzzzzzzzzzzzzzzzzzzzzzzzzzzzzzzzzzzzzzzzz",
"zzzzzzzzzzzzzzzzzzzzzzzzzzzzzzzzzzzzzzzzzzzzzzzzzz-:---:-:-::-:=++++++++++++++zzzzzzzzzzzzzzzzzzzzzzzzzzzzzzzzzzzzzzzzzzzzzzzzzz",
"zzzzzzzzzzzzzzzzzzzzzzzzzzzzzzzzzzzzzzzzzzzzzz---:------------:-++++++++++++++++++zzzzzzzzzzzzzzzzzzzzzzzzzzzzzzzzzzzzzzzzzzzzzz",
"zzzzzzzzzzzzzzzzzzzzzzzzzzzzzzzzzzzzzzzzzzz-:--:------:---:---:-+++++++++++++++++++++zzzzzzzzzzzzzzzzzzzzzzzzzzzzzzzzzzzzzzzzzzz",
"zzzzzzzzzzzzzzzzzzzzzzzzzzzzzzzzzzzzzzzz-:--:---:--::--:-----::=+o++++++++++++++++++++++zzzzzzzzzzzzzzzzzzzzzzzzzzzzzzzzzzzzzzzz",
"zzzzzzzzzzzzzzzzzzzzzzzzzzzzzzzzzzzzzz:-----------------:--:--:-++++++++++++++++++++++++++zzzzzzzzzzzzzzzzzzzzzzzzzzzzzzzzzzzzzz",
"zzzzzzzzzzzzzzzzzzzzzzzzzzzzzzzzzzzz-------:---:--------------:-++++++++++++++++++++++++++++zzzzzzzzzzzzzzzzzzzzzzzzzzzzzzzzzzzz",
"zzzzzzzzzzzzzzzzzzzzzzzzzzzzzzzzzz--:--:-:---:--:--:--:--:--:--&++++++++++++++++++++++++++++++zzzzzzzzzzzzzzzzzzzzzzzzzzzzzzzzzz",
"zzzzzzzzzzzzzzzzzzzzzzzzzzzzzzzz--:--:----:---:---:-:----:::----++++++++++++++++++++++++++++++++zzzzzzzzzzzzzzzzzzzzzzzzzzzzzzzz",
"zzzzzzzzzzzzzzzzzzzzzzzzzzzzzz----------:---:--------:&-====*=*#..XXXXX+++++++++++++++++++++++++++zzzzzzzzzzzzzzzzzzzzzzzzzzzzzz",
"zzzzzzzzzzzzzzzzzzzzzzzzzzzzz::-:--:---:------:--:-==**-:><<5556<>;>;;$+oXXoo+++++$o+++++++++++++++zzzzzzzzzzzzzzzzzzzzzzzzzzzzz",
"zzzzzzzzzzzzzzzzzzzzzzzzzzz----------:----:---:====:<5wydfghhhjjuuuuu00841>-$o o+++%+++++++++++++++++zzzzzzzzzzzzzzzzzzzzzzzzzzz",
"zzzzzzzzzzzzzzzzzzzzzzzzzz---:----:-----:--:-=*-<6ydgjjhhggggghs00q0qqquuiuq82,&$ .oo%++++++++++++++++zzzzzzzzzzzzzzzzzzzzzzzzzz",
"zzzzzzzzzzzzzzzzzzzzzzzz--:-----------:---=*&<9ahjhhggdddgddddhs00000000000quuuq4<%o.o+o+++++++++++++++zzzzzzzzzzzzzzzzzzzzzzzzz",
"zzzzzzzzzzzzzzzzzzzzzzz---:--::--::--:::=*:5ahjhggddfddddddgddgf000000000000000quuq6>o.o+++++++++++++++++zzzzzzzzzzzzzzzzzzzzzzz",
"zzzzzzzzzzzzzzzzzzzzzz---:------------=*:9djhggdgfdddgddddddddgs000000000000000000qui8,%.o++++++++++++++++zzzzzzzzzzzzzzzzzzzzzz",
"zzzzzzzzzzzzzzzzzzzzz-----------:--:=*:9gjhgddddddddgddddgddddhf00000000000000000000qui0,$.o$o+++++++++++++zzzzzzzzzzzzzzzzzzzzz",
"zzzzzzzzzzzzzzzzzzzz---::-:--::-::-+-5gjhggfdgdddddgdddddddddggs00000000000000000000000qi8>oo++o++++++++++++zzzzzzzzzzzzzzzzzzzz",
"zzzzzzzzzzzzzzzzzzz:-::---:------**2skhdgdddddddddddddddddddddhs0000000000000000000000000ui4%.o%+++++++++++++zzzzzzzzzzzzzzzzzzz",
"zzzzzzzzzzzzzzzzzz------------:-*:whhgfdddddddddgdddddddddddgdhs000000000000000q00000000000iu<o.++++++++++++++zzzzzzzzzzzzzzzzzz",
"zzzzzzzzzzzzzzzzz-:-------:--:=*<djgdddddddddddddddddddgddgdddgf080000000000q000000000000000qi7=X++++++++++++++zzzzzzzzzzzzzzzzz",
"zzzzzzzzzzzzzzzz:---:-:-:---:==6jhgddgddddddgdgdddddddddddddddgs000000000000000000000000000000iq>Xo+++++++++++++zzzzzzzzzzzzzzzz",
"zzzzzzzzzzzzzzz---:---:----:=-yjgdddddddddgddddddddgddfdgdddddhs00q0000000000000000000000000000qi1oo+++++++++++++zzzzzzzzzzzzzzz",
"zzzzzzzzzzzzzz-------------*:sjgddddddddddddddddddddgdddddddgfhf0000000000000000q0000000000000000i6oX$++++++++++++zzzzzzzzzzzzzz",
"zzzzzzzzzzzzz--:--------:-*>gjfgddddddddddddddddddgdddddgdddddgs080000000000000000000000000000000qi7+X$+++++++++++zzzzzzzzzzzzzz",
"zzzzzzzzzzzzz-----:---:--*<hhgffgdddgdgddgddddddddddddddddddddhs00000000000000000000000000000000000i8+.++++++++++++zzzzzzzzzzzzz",
"zzzzzzzzzzzz----:-:-:-:-#<hhddgddddddddddddddgdggddddddgddddgdgf0000000000000000000000q00000000q0000i8+.++++++++++++zzzzzzzzzzzz",
"zzzzzzzzzzz::--:------:=>hhgddddddddddddddddddddddddddddddddddgs0000000000000000000000000000000000000i0+X++++++++++++zzzzzzzzzzz",
"zzzzzzzzzzz---:------:*:ghdddgdddddddgdddddddddddddddgdddddggfhf000000000000000000000000q0000000000000i7oo+++$+++++++zzzzzzzzzzz",
"zzzzzzzzzz--:---:--::=-ajddddddddddgdddgdgddggdddddgdddddddddggs000000000000000000000000000000000000000i3o++++++++++++zzzzzzzzzz",
"zzzzzzzzz:---------:&=yjdgddgdddddddddgggghhhjhhhhhgggddddddddhs00000000000qqqquuuuuqqq0000000000000000qu<.+++++++++++zzzzzzzzzz",
"zzzzzzzzz--:--:-----*5jgdddddddddgddddhhjgdayyyyysdhjhgdgdddddhs000000000quuq04433334qqiuq00000000000000uu;.+++++++++++zzzzzzzzz",
"zzzzzzzz:--:--:---:*<hgdfdddgddddddghjgy5<:--=-=--:<9ygjhgfdddgf0000080ui83,%%++ooooo$;,30iu0000000000008u0%.$++++++++++zzzzzzzz",
"zzzzzzzz---------:*:ghddddddddddddhha5:=*=-==---=-==*=>5skhdfggs00000ui7,%..ooo+++++o+..o%,8iq000000000000i7.o++++++++++zzzzzzzz",
"zzzzzzz---------:-=wkddddddddddghks2===&---::---------=*-5djhfhs008qi8;+..++++++++++$++++o.+,0iq0q000000000i,.+++++++++++zzzzzzz",
"zzzzzzz-:--::--::*<jgdddddgddddhh5-*=:------------:--:--=*:wjhgf08uu<+.++++++++++++++++++++o.+2uq0000000000uq%.%+++++++++zzzzzzz",
"zzzzzz----:---:-=-ahddddddddddjd,*=::--:------:------:---:**1hjs0u8&.o+++++++++++++++++++++++o.>qq0000000000i3oo++++++++++zzzzzz",
"zzzzzz:-:-------*9kfddgdddgggja:*-:------:------:--:---:----#<hhq3+.++++++++++++++++++++++++++o.%0u0000000000u;.++++++++++zzzzzz",
"zzzzz:---------=:ghddddddddgja=*---------:-::--:-----------::*<fp, o++++++++++++++++++++++++++++.$8u000000000u6$.+++%++++++zzzzz",
"zzzzz-----:----*9jgdddddgddha==:----:--:---------:---:---:----+>qp< +++++++++++++++++++++++++++++.+0i000000000i>.++++++++++zzzzz",
"zzzz--:-:---:-=>ghgdddddgghs-*:---:----------:=:---:---:--:----*%0p1.o$+++++++++++++++++++++++++++.%qu800000q0u6+o+++++++++zzzzz",
"zzzz:---------*9jddddgdgghh<#:--:-----:-:-:-:=:=--------:------- %0p1..++++++++++++++++++++++++++++.>uq00000000i>.++++++++++zzzz",
"zzzz---------=:fhdddddddgj5#:-:-----:-:---:-&<g2*-----------:---+ %0p1.++++++++++++++++++++++++++++o.3i80000000u7o++++++++++zzzz",
"zzz:--:-:--:-*5jddgdddddhs-=:-----:---------=5lj<$--:--:--:-----++ %qp1.o+++++++++++++++++++++++++o%.%qu00000000u&X++++++++++zzz",
"zzz---:------=ahdddddfghj2*-----------:------=5kj<*-----:---:-:-+o+.%0p1.@$++++++++++++++++++++++++++.,u00000000u1X++++++++++zzz",
"zzz-------:-=,hhgddddggha-=--::-:--:-----:--:=#5kj1*-:-----:--:-++++.%qp1..$+++++++++++++++++++++++++o%0q00q0000u0$o+++++++++zzz",
"zz-::--::-:-*wjgddddddgh2*:---:------::--:-:-:=*5kk1*-----------+++++.%0s1.+%+++++++++++++++++++++++++.1i00000000i>.++++++++++zz",
"zz--------:=-ahgddddgdhg:=-:------:-------------$2kj<#-:--:---:-++++++.%qp<.o+++++++++++++++++++++++++.;u00000000u3o++++++++++zz",
"zz--------:*<hgddddgddhr*-------:---:--:------::-#2kh2*-----:---+++++++.%tp;.o%++++++++++++++%++++++++o+7u0000000q0$o+++++++++zz",
"zz:--:-----*5jgdddddddj5+:-::-:----------::--:::=#5hkj<#--------++++++++ ;p8$o+++++++++++++++++++++++++X1u00000000u;.+++++++++zz",
"z-:--::--:-=yhgdddddggh<=:----:---------------:=*9kd9jk<*-----:-++++++++$.6p;.+++++++++++++++++++++++++.>iq0000000i1o+++++$+++zz",
"z-------::=:dhgggdddghd:=-------:--::--:--:--:=*9kh,O5kj<$--:-:-+++++++++.,p< +++++++++++++++++++++++++o;qq0000000u6oo+++++++++z",
"z---------=<hgdgdddddha:=:-:-----:----:--:---=*9lh,*-#5kj1*-----++++++++%.>p1o$++++++++++++++++++++++++o%0q0000000q0%o+++++++++z",
"z-:--::---*5hddddddddhy--:----:----:-------:=*9lh,*::-*2kj<*----+++++++++.>p1oo++++++++++++++++++++++++++0q0000000qq;X+++++++++z",
"z---------=wjgddgdgdghr==:-::-:--------::::=*9lh,*---:=*5kj2$---+++++++++.<p<.+++++++++++++++++++++++++o$8q00000000u,.$++++++++z",
":-:--:-----yhgddddggghr----------:--:---::=*9kh,*:------$5kj1@--++++++++.+8u&.+++++++++++++++++++++++++o+0q00000000u1X+++++++++z",
"--:-------:shgddddddghy--:-------:------:=*9lh,*----:--:-*2hj2@-++++++++.>p3oo$++++++++++++++++++++++++++0q00000000u3++++++++++z",
"-----::--=>fggddddgdgha:=:----:-----:--:=*9lh,*---------:=*yjj2@+++++++ %ui;.%+++++++++++++++++++++++++o$0q00000000u7+o+++++++++",
":--:--:-:=<hgdddddddggs:=::--::-:-:---:=*9kh,*:--:------==ehhkj2. +o...;up1.+++++++++++++++++++++++++++o&qq00000000u0+o+++++++++",
"--------:=1hggddddddghg<=-----------::=*9lh<*---------:==ekj92kj3;++%;3ip1.o+++++++++++++++++++++++++++X>qq0000000000%++++++++++",
"--:------*5hhfdddgdddgh2*::-------:-:==9kh,*--------::==ejjr=@2spp00qpp0>..++++++++++++++++++++++++++++.<i00000000000%X+++++++++",
":---:-:--*2jggdddddgddjw*---:-:-:-::=*9lh,#---:--:--:=*ekje==-$:,30q06,$.++++++++++++++++++++++++++++++o6u0000000000u;X+++++++++",
"------:--*2hfdddddddddhs-=:---:---:=*9lh<*----:--:-:==wkje*=:-:=..%$+..+++++++++++++++++++$+++++++++++o%000000000000q;o+++++++++",
"--:------*9jddgdddddddgh<*::-----:=*9kh,*:--------:==wkjr==:----+o+.++++++++++++++++++++++++++++++++++.,u0000000000uu;o+++++++++",
"---------*5kddddddddddgjw*----::-=*9kj,*----------=*ekjr==::----%+++.o$+++++++++++++++++++++++++++++++o6u0000000000qq;.+++++++++",
"-:---:---=5hgdddgdddddggh>*:-:-:=*9lh,@:--:---:-:==ejjr==:--:---+++.&;.++++++++++++++++++++++++++++++.;iq0000000000qu;.%++++++++",
"-:-:---:-*5hgfddddddddddjw*--::=*9kh<*--:-:--:-:==rkjr==:-----:-++.%qu;++++++++++++++++++++++++++++++.7i00000000000qq;.+++++++++",
"-----:---*2hgdgdddgdddddhh>*:--*9kj,#----------==rjjr==:---:----+.%8up6.++++++++++++++++++++++++++++.>u000000000000qq%.+++++++++",
"---------=<hggddddddgdddgha==:*2kh,*---------:==ekjr==:---:---:-.%0ui3++++++++++++++++++++++++++++%.%8u000000000000q0%.%++++++++",
"-::-:--:-=,ggddddddgddddddk5*=:dk<#-:--::--:-==ejje==:--------:*%8ui7o.++++++++++++++++++++++++++$o 1i0000000000000q8%o+++++++++",
"-:------:=>fggdddddddddddfhh<O1ky*---------:==ekjr*=:---:--:-:=>0ui3o.++++++++++++++++++++++++++++ ,i0000000q000000t4$o+++++++++",
"-----:-::-:ahddgdddddddgdgghg=5l2#---:--:-:==rjjr==:--:------*>sti4$o$+++++++++++++++++++++++++++ ;uq00000000000000u3oo$+++++++z",
"--:--:----=rhgddgddddddgdddskywk2*:--:---:=*ejjr==:--:------*:hhi7oo++++++++++++++++++++++++%oo$ ;0u000000000000000u1.+++++++++z",
"z:--------*wjgdddddddddddgdddhgj9*------:==rjke==---------:*:gjj7oo++++++++++..+++++++++++++oo%.%0u8000000000000000u,.+++++++++z",
"z---:-:---+5jggddddddddddddddgdhs-=---::==ekje==:--:-::--:=:gjkyo.+++++++++%.%;.%+++++++++++$+.&qu00000000000000000q&o+++++++++z",
"z-:-----:-=<hgdddddggdddddddddddjw#=---**rjjr==---------:=:gjjy=o++++++++++.$0p;.++++++++++++.&qu00000000000000000u0$o+++++++++z",
"z----:--:-=:dhgddddddddddddddgddgjy:===:yjjr==::--:----:*:gjjy=*++++++++++.+8ii<.%o+++++++++ &qu000000000q0000q000u6+o+++++++++z",
"z-:--------=rhdddddgdddddddgdddddghgr9ygjjy==---:----:-*>gjja-=-+++++++++.+0ii,.+++++++++++.&qu00000000000000000q0i,.+++++++++zz",
"zz:--::---:*5jddddddddddddddddddgddgjhhghs-=:---------*>ghjy==:-++++++++o+8iu,.++++++++++o.%qu00000000000000000000u;X+++++++++zz",
"zz------:--=,ggdgddddddgdgdddddddddgggggj2#-:--:----:#>djja&=:--+++++++.+8iu, +++++++++++ ;qt00000000000000000000u8$++++++++++zz",
"zz--:--:----=ahgdgddddddgddddddgdgdddddgh<=---:-:---*:gjjy==:-:-++++++o+8ii,.o++++++++++ %qu000000q00000000000000i1.++++++++++zz",
"zz:---------*9jfddddddddddddddddddddddggh<=:------:*:gjjy-=:--:-+++++o+8iu,.+++++++++++.;qu0000000000000000000000u;X+++++++++zzz",
"zzz-----:---=,hgdddgdddddddddddddgdddddgh5*::--:-:*>gjjy==::----++++.+8iu, +++++++++++.%qu0000000000000000000000u8$o+++++++++zzz",
"zzz-:--:---:-=yhdddddgddddgddgddddddddddhs==:----=:ghky-=:-:--:-+++.+0ii, +++++++++++.;qu00000000000000000000000i2.++++++++++zzz",
"zzz-:---:--::=2jggdddddddddgddddddddddddghw**=-=+>gjja==:-:---:-++o+8ii,.+++++++++++.&qi000000000000000000q0000qq%.++++++++++zzz",
"zzzz---------=-shddddddgdddddddddddddgdgghhy,--:2ghja==::---:-:&+.+8ii,.+++++++++++.%qu00q000000000000000000000u3o++++++++++zzzz",
"zzzz---:------*5jdddddddddddddddddgdddddgfghhsyshhja==:-------::o+8iu,.o++++++++++.;0u00000000000000000000000qqu;.++++++++++zzzz",
"zzzz:------:-:=:dhdddgddgddddddgddddddddddgghhhhggg:*:-:--:---:*+8iu,.+++++++++++.%qu0000000000000000000000000u7o++++++++++zzzzz",
"zzzzz---:--:--:*5kdgddddddddddddddddddddgddddddggj9#----------=-8iu,.o++++++++++.%uu00000000q0000000000000000qu;.++++++++++zzzzz",
"zzzzz:---------=:shfddddddgddddddgddddddddddddddgh<=------:-:*:spu,.+++++++++++.%uu80000000000000000000000000u3o+++++++++++zzzzz",
"zzzzzz-:--------*2jgddddddddgdgddddddddgddddddddgh<*---::---=-sju,.o++++++++++.&0u000000000000000000000q0000qu&X++++++++++zzzzzz",
"zzzzzz--:--:-:--&*akddgddddddddddddddgdddddggdddfj5*-:-----=-skh,.o++++++++++.%qu000000000000000000000000000u1.+++++++++++zzzzzz",
"zzzzzzz---:-----:*,hggdddddddddddddddddddddddddddha&=::--:*-akj5.o++++++++++.&qu000000000000000000000000000u0+o++++++++++zzzzzzz",
"zzzzzzz::---:--:--*5jdddgddddddddgddgddddddgddddddjw*==-=*:skj5*+o+++++++++.&qu00000000000q0000000000000000u;.$++++++++++zzzzzzz",
"zzzzzzzz---------:-=ajdddddddgdddgdddddddddddddgddgjy>-=-1skj5*=++++++++++.;qu0000000000000000000000000000i1.+++++++++++zzzzzzzz",
"zzzzzzzz--:---:--::*>hhdddgddddddddddddddgddddddgffhhgayshjh5+--+++++++++.;uu0000000000000000000000000000u0+o+++++++++++zzzzzzzz",
"zzzzzzzzz-----------#2jhgfdddddddddddddddgdddddddgdddghhhghy*=:-+o++++++.;uq0000000000000000000000000000uu%.+++++++++++zzzzzzzzz",
"zzzzzzzzz-:--:-:-::--*9jgddddgdddddgdddddddddddddddgddggdgh<*::-++++++o.;uu0000000000000000000000000000ui>.+++++++++++zzzzzzzzzz",
"zzzzzzzzzz-:-:------:==yjfddddddddddddgddgdddgddddddddgddgg>=::-$+++++.;uq0000000000q00000000000000q000u1X++++++++++++zzzzzzzzzz",
"zzzzzzzzzzz------:---:==akdddgddddgdddddddddddddddddgdddggg,=::-+o+++.;uu00000000000000000q0000000000qi2Xo+++++++++++zzzzzzzzzzz",
"zzzzzzzzzzz-:--:-:---::=:sjgdddddddddddddddddddddddddddddgh2#::-++++.;iu00000000000000000000000000000u7oo+++++++++++zzzzzzzzzzzz",
"zzzzzzzzzzzz-----------:=:sjddddgddddddgdddddgdgddddddddddha*=::%oo.;uq0000000000000000000000000000qi7oo++++++++++++zzzzzzzzzzzz",
"zzzzzzzzzzzzz------:---::*-sjgdddddddddddgdddddddddgdddgddgjw**=o..>iq0000000000q0000000q000000000qi7oX++++$+++++++zzzzzzzzzzzzz",
"zzzzzzzzzzzzzz-:-:---:--::=:ajgddddddgdddddddddddgdddddddddhhy2:+%1uq000000000q000000000000000000qi2Xo$+++++++++++zzzzzzzzzzzzzz",
"zzzzzzzzzzzzzz----:---:-:-:==yjgddddddddddgdddddddddddgddddddhjs8quq0000000000000000000000000000ui1.o++++++++++++zzzzzzzzzzzzzzz",
"zzzzzzzzzzzzzzz-:---:---&:-:==9jhdddddddddddgdddddddddddddddddhgqq00000000000000000000000000000uu;.o+++++++++++++zzzzzzzzzzzzzzz",
"zzzzzzzzzzzzzzzz--------:---:=*1hkggddddddddddddddgdddgdddddddhsq0000000000000000000000000000qi8%.++++++++++++++zzzzzzzzzzzzzzzz",
"zzzzzzzzzzzzzzzzz--:--:---:-::-*:yjhdddgddddddgdddddddddddgdgfhf0000000000000000000000000000ui2+.++++++++++++++zzzzzzzzzzzzzzzzz",
"zzzzzzzzzzzzzzzzzz-:--:---:-----*=5hjgddgdddddddddddddddddddgdgs000000000000000000000000000i0;Xo$+++++++++++++zzzzzzzzzzzzzzzzzz",
"zzzzzzzzzzzzzzzzzzz-----:---:-:-:=*>rjhgddddddddgdgdddddddddddhs0000000000000000000000000iu1+.+++++++++++++++zzzzzzzzzzzzzzzzzzz",
"zzzzzzzzzzzzzzzzzzzz-:-----------::*=2akhgddgdddddddddgdddddddgd080000q000000000000000qui3%.o+++++++++++++++zzzzzzzzzzzzzzzzzzzz",
"zzzzzzzzzzzzzzzzzzzzz--:--:--:----::=*=5sjhgdddddddddddddgddddgs00000000000q00000000quu7>.o++++++++++++++++zzzzzzzzzzzzzzzzzzzzz",
"zzzzzzzzzzzzzzzzzzzzzz--:-------:--:-:=*-2ahjhggddggdddddddddfhs00000000000000000quuq3;o.+++++++++++++++++zzzzzzzzzzzzzzzzzzzzzz",
"zzzzzzzzzzzzzzzzzzzzzzz---:--:---------:=*=1wfjjhgdgddgfdddgdghf00000q00000q00qqui81&X.o++++++++++++++++zzzzzzzzzzzzzzzzzzzzzzzz",
"zzzzzzzzzzzzzzzzzzzzzzzzz-:--::------:-----=*:2rshjhggggddgddghs0000000000qquuu82;+XX++++++++++++++++++zzzzzzzzzzzzzzzzzzzzzzzzz",
"zzzzzzzzzzzzzzzzzzzzzzzzzz-------:----------:=*=:29adhjjhhhggghsqqqqqqquiuq831;$X.++$+++++++++++++++++zzzzzzzzzzzzzzzzzzzzzzzzzz",
"zzzzzzzzzzzzzzzzzzzzzzzzzzz--:--:--:---::---:----**=:259yadfghhfqqq008631,%%o .o++++++++++++++++++++zzzzzzzzzzzzzzzzzzzzzzzzzzzz",
"zzzzzzzzzzzzzzzzzzzzzzzzzzzzz-------:-----------::--==*=--:>,<2<:&;&%$%o....o%o$++++++$++++++++++++zzzzzzzzzzzzzzzzzzzzzzzzzzzzz",
"zzzzzzzzzzzzzzzzzzzzzzzzzzzzzz:-------------------:------=&====*o.Xooooo%++++++++++++++++++++++++zzzzzzzzzzzzzzzzzzzzzzzzzzzzzzz",
"zzzzzzzzzzzzzzzzzzzzzzzzzzzzzzzz:--:---::--::--:-:---:--::::----$o$+o+%o++%+++++++++++++++++++++zzzzzzzzzzzzzzzzzzzzzzzzzzzzzzzz",
"zzzzzzzzzzzzzzzzzzzzzzzzzzzzzzzzzz--:--------------------:---::-++++++++++++++++++++++++++++++zzzzzzzzzzzzzzzzzzzzzzzzzzzzzzzzzz",
"zzzzzzzzzzzzzzzzzzzzzzzzzzzzzzzzzzzz-----:---:---:-::--:------:-++++++++++++++++++++++++++++zzzzzzzzzzzzzzzzzzzzzzzzzzzzzzzzzzzz",
"zzzzzzzzzzzzzzzzzzzzzzzzzzzzzzzzzzzzzz-:-:-:-:-:-:------:--:--:=++++++++++++++++++++++++++zzzzzzzzzzzzzzzzzzzzzzzzzzzzzzzzzzzzzz",
"zzzzzzzzzzzzzzzzzzzzzzzzzzzzzzzzzzzzzzzzz-------------:------::-+++++++++++++++++++++++zzzzzzzzzzzzzzzzzzzzzzzzzzzzzzzzzzzzzzzzz",
"zzzzzzzzzzzzzzzzzzzzzzzzzzzzzzzzzzzzzzzzzzz-------:-------:---:=+o+++++++++++++++++++zzzzzzzzzzzzzzzzzzzzzzzzzzzzzzzzzzzzzzzzzzz",
"zzzzzzzzzzzzzzzzzzzzzzzzzzzzzzzzzzzzzzzzzzzzzzz::---:--:----:::-+++++++++++++++++zzzzzzzzzzzzzzzzzzzzzzzzzzzzzzzzzzzzzzzzzzzzzzz",
"zzzzzzzzzzzzzzzzzzzzzzzzzzzzzzzzzzzzzzzzzzzzzzzzzzz-:----:-:----+++++++++++++zzzzzzzzzzzzzzzzzzzzzzzzzzzzzzzzzzzzzzzzzzzzzzzzzzz",
"zzzzzzzzzzzzzzzzzzzzzzzzzzzzzzzzzzzzzzzzzzzzzzzzzzzzzzzzz-------+++++++zzzzzzzzzzzzzzzzzzzzzzzzzzzzzzzzzzzzzzzzzzzzzzzzzzzzzzzzz"
};
