/* XPM */
static char *mY8M8IX5[] = {
/* columns rows colors chars-per-pixel */
"64 64 53 1 ",
"  c #EDBA3E",
". c #E5AE40",
"X c #E6B345",
"o c #E8B543",
"O c #EEBD42",
"+ c #E7B649",
"@ c #E8B74A",
"# c #E9BA4D",
"$ c #EABE52",
"% c #EFC24D",
"& c #F0C34F",
"* c #EEC452",
"= c #ECC55A",
"- c #EEC95F",
"; c #F0C653",
": c #F0C857",
"> c #F1CC5E",
", c #EFCB61",
"< c #F1CD61",
"1 c #F1D067",
"2 c #F2D36B",
"3 c #F3D86F",
"4 c #F3D671",
"5 c #F4DA74",
"6 c #F5DC7B",
"7 c #F7E37D",
"8 c #F8E57F",
"9 c #F5DE81",
"0 c #F6E185",
"q c #F8E681",
"w c #FAEA85",
"e c #F6E38B",
"r c #FBEF8B",
"t c #FCF18D",
"y c #F7E691",
"u c #F7E995",
"i c #F8E997",
"p c #F7EA99",
"a c #F8EC9C",
"s c #FDF592",
"d c #FEF996",
"f c #FFFB99",
"g c #F9EFA1",
"h c #F9F1A6",
"j c #FFFFA1",
"k c #FAF6AF",
"l c #FAF7B1",
"z c #FBF9B5",
"x c #FBFDBC",
"c c #FCFFC3",
"v c #FEFFCD",
"b c #FEFFD1",
"n c None",
/* pixels */
"nnnnnnnnnnnnnnnnnnnnnnnnnn>>>><>$$$$$$nnnnnnnnnnnnnnnnnnnnnnnnnn",
"nnnnnnnnnnnnnnnnnnnnnn>><>><<><>$#$$$$$$$$nnnnnnnnnnnnnnnnnnnnnn",
"nnnnnnnnnnnnnnnnnnn>>>>><>>>>><>$$$$$$$$$$$$nnnnnnnnnnnnnnnnnnnn",
"nnnnnnnnnnnnnnnnn><>><><>>><>>>>$$$$$$$$$$$$$$$nnnnnnnnnnnnnnnnn",
"nnnnnnnnnnnnnnnn<>>><>>>>:;;&;:;@++o++#$=$$$$$$$nnnnnnnnnnnnnnnn",
"nnnnnnnnnnnnnn>>>>><><:;;<460yuu77531-$+X#$$$$$$$$nnnnnnnnnnnnnn",
"nnnnnnnnnnnnn><>>><>;&<6uhzxxxczsssddtw6,$X+$$$$$$$nnnnnnnnnnnnn",
"nnnnnnnnnnn>><>>><;&2ykxxxlklllkrtrttttddr5=X+**$$$$$nnnnnnnnnnn",
"nnnnnnnnnn>>>>><>&<yxxzlkkkzkkzhtrrrrtrrrsds7#o#*$$$$$nnnnnnnnnn",
"nnnnnnnnn<<>><<;;0xclkkkkkkkkkkkrrrrrrrrrrrtft1++$$$$$$nnnnnnnnn",
"nnnnnnnn><>><<&<gczklklkkkkkkkkkrrrrrrrrrrrrrtf7$X$$$$$$nnnnnnnn",
"nnnnnnn>>>><>&2zxkkkkkkkkkkkkkzhrrrrrrrtrrrrrrtdu=+$$$$$$nnnnnnn",
"nnnnnnn><><<%6xxkkkkkkkkkkkzkklkrwrrrrrrrrrrrrrrds=o$$$$$nnnnnnn",
"nnnnnn<>>>>&5xzkkkkkkkkkkkkkkkzkrrrrrrrttrttrrrrrss-X$$$$$nnnnnn",
"nnnnn><>><%2xxkkkkkklzxxzzkkkkzhrrrrrttsssstrrrrrrss=X*$$$$nnnnn",
"nnnnn>>><*<lxkkkklxczhgghkxxlklkrrrtdsr888wtdstrrrrdr$+$$$$nnnnn",
"nnnn<><<:;hxkllkxxg92>>:><6yzxzkrtdr6,=$#$$,2qddrrrrf7X#$$$$nnnn",
"nnn>>>>>&0ckkklxk5;%;>:>>;$&<uxzts5=XX+#$##++#,rdrrrrf1+$$$$nnnn",
"nnn>>><;1zzkkkxa;&><>><<><<>;&9xt=XX$$$$$$$$$#+#qdrrrsr$#$$$$nnn",
"nn<>><>&yckkkci&;<>>>>>>>>><<>&6d$X=$$$$$$$$$$*++7drrrf4+$$$$nnn",
"nn<>><;2zllkxg;;<><>><<::<<>>>>$1d=X$$$$$$$$$$$$+@wdrrsr*#$$$$nn",
"nn>><>&yckkzz<;<<>>><;4k<;<>>>>>X1f=X$$$$$$$$$$$*o=srrrf4X$$$$nn",
"n><><:<kzlkce&>>>><>>>:pz<;>>>>>$.2d=+$$$$$$$$$$$$+5frrsw#$$$$$n",
"n>>>>*6xkkll2;<><>>>><:$rk>;<<<>$#X2f=+$$$$$$$$$$$X,drrrd,+$$$$n",
"n>>><;uxlkxa;>>>>><><><;Ozc:&<>>=#$.5r#$$$$$$$$$$$$#qsrtf5+$$$$n",
"n<><:<hxlkxe*>><>>>><<:*aayx>;<>$$$##w1+$$$$$$$$$$$+5srrdq#$$$$n",
"<>>>;2zlklx6&><><><><:&az:Oux>;>$$$$X05+$$$$$$$$$$$o3drrrr=+$$$n",
">>><;6xlklx6;>>>>>><:%az:;>&uz:;=#$##r,+$$$$$$$$$$*@2drrrd,+$$$$",
">>>>;0xlklx6;<<>>><:&ax::<<:Oac>X++ 7rX$$$$$$$$$$$$+2dtrtd2+$$$$",
"<>>>;yxkkkxe;>>>><:&az:;<><&1klk1$=7t=X=$$$$$$$$$$$+5dtrrd4o$$$$",
"><>>;uxlkkxi;><><:&ax:;<><%2ca%6rwr0$X$$$$$$$$$$$$$#8srrrs5@$$$$",
">>>>;axklkzk<;><:&ax:;<><%1ca&:*#=$X#=$$$$$$$$$$$$+=ttrrtd6@$$$$",
"<>>>:axlkklx9;<:%ax:;<><&<ca&:<>$+=*$$$$$$$$$$$$$$+4drrrrd5#*$$$",
">>>>:yxkkklzk::*az:;<><%2va&:<<>X,f,X$$*$$$$$$$$$+$tsrrryd5+$$$$",
">>>>;yxllkkkxyO9z>*<>>%2ca&:<>>&,j0##$$$$$$$$$$$$X6drrrtrd3X$$$$",
"><><%qxlkkkklx2a6%<><%<va&:<<>$5j0X#$$$$$$$$$$$$X2dtrrrrrd2X$$$$",
">>>>;6xkkkkkkzll2&<<&2ca&:<<>&5c0X#$$$++$$$$$$$+,dtrrrrrrs,+$$$$",
"><><:2llklkkkkzxu%%%2ca&:<<>&5baX+*$$+15#$$$$$+,dsrrrrrrtr=#$$*n",
"n>>>>>hxlklkklklxu26ca&:<<>&5ba&#*$$X,j6+$$$$X,fsrrrrrrrdq#$$$$n",
"n>><>;yxkkkkkkkkkxxvh*;<<<O5ba&:$#$X,f5X$$$$X,dtwrrrrrrrd4o$$$$n",
"n<<>>;6xkkkkkkkkkkkc0%><>%4ba*:>$$X-f5X$$$$X,dsrrrrrrrrts,+$$$$n",
"n>>>>:<hzkklkkkkkkkxg*;:%5va;;1>$X-j5X$$$$X,dsrrrrrrrrrsw#$$$$$n",
"nn>><>;eckkklkkkkkkkxe>:6va&;<>>X-j5X#$$$+,dtrrrtrrrrrtd2X$$$$nn",
"nn><>>;2zzlkkkkllkkklxkhcg&:<<<#,j5.$$$$X,dsrrrrrrrrrttt$#$$$$nn",
"nnn<>>>&ycklkkkkkkkkkkzxz2&<><*2j5X#$$$X,dtrrrrrrrrrtrd3+$$$$nnn",
"nnn>><<;<lzklkklklkkkkklz1;>>%5v5.$$$$X,dsrrrrrrrrrrrsr##$$$$nnn",
"nnn>>><<%9ckkkkkkklkkkkkxy&#O6veX#$$$X,dsrrrrrrrrrrrtd,o$$$$nnnn",
"nnnn<>>>:;ackkkkklkkklkkkxi5ece%#$$$X1dsyrrrrrtrrrrrf6+$$$$$nnnn",
"nnnnn><><;>kxkkkkkkkkkklkkxxva%:=$$X1dsrrrrrrrrrtrrdr+#$$$$nnnnn",
"nnnnn>>>><%2xxkkkklklkkkkkklc0%>$#X1dtrrrrrrrrrrrrst$+$$$$$nnnnn",
"nnnnnn><<><&2xzkkkkkkkkkkkkkxa;&@X1dsrrrrtrrrrrrrss=X$$$$$nnnnnn",
"nnnnnnn>>>>>%2xxkkkkkklkkklkkzy>#2dtrrtrrrrrtrrrdt=o*$$$$nnnnnnn",
"nnnnnnn>>>>>>%1kclkkkkkkklkkklxkrstrrrrrrrrrrrrfr$+$$$$$nnnnnnnn",
"nnnnnnnn><>><<;:icxkkkkkkkkkkklktrrrrrrrrrrrrsf6#+$$$$$$nnnnnnnn",
"nnnnnnnnn<><>><;;6lczkkkkkkkkklkrrrrrrrrrtrsfr,+#$$$$$$nnnnnnnnn",
"nnnnnnnnnn>><><<:&>elcxlkkklkllkrrrrrrrrtsdr5#+$$$$$$$nnnnnnnnnn",
"nnnnnnnnnnn>>>>>><:&<0hxxxlkkzkkrrttrtsfsw2$X#$$$$$$nnnnnnnnnnnn",
"nnnnnnnnnnnnn<><>>><;;>5eglxxxxxssddttq3,$X#$$$$$$$nnnnnnnnnnnnn",
"nnnnnnnnnnnnnn>>><>><<:;*:259eye7331,=#+@$$$$$$$$$nnnnnnnnnnnnnn",
"nnnnnnnnnnnnnnnn>><><><><>;;;&;*++++X##*$$$$$$$$nnnnnnnnnnnnnnnn",
"nnnnnnnnnnnnnnnnn>><<><>>>><><>>$$$$$$$$$$$$$$nnnnnnnnnnnnnnnnnn",
"nnnnnnnnnnnnnnnnnnnn>>>><>>>>><>$$$$$$$$$$$$nnnnnnnnnnnnnnnnnnnn",
"nnnnnnnnnnnnnnnnnnnnnn<>>>><<>>>$$$$$$$$$nnnnnnnnnnnnnnnnnnnnnnn",
"nnnnnnnnnnnnnnnnnnnnnnnnnnn>>>>>$$$$$nnnnnnnnnnnnnnnnnnnnnnnnnnn"
};
