<?xml version="1.0" encoding="utf-8"?>
<!-- Generator: Adobe Illustrator 16.0.3, SVG Export Plug-In . SVG Version: 6.00 Build 0)  -->
<!DOCTYPE svg PUBLIC "-//W3C//DTD SVG 1.1//EN" "http://www.w3.org/Graphics/SVG/1.1/DTD/svg11.dtd">
<svg version="1.1"
	 id="svg2" xmlns:svg="http://www.w3.org/2000/svg" xmlns:inkscape="http://www.inkscape.org/namespaces/inkscape" xmlns:sodipodi="http://sodipodi.sourceforge.net/DTD/sodipodi-0.dtd" xmlns:cc="http://creativecommons.org/ns#" xmlns:rdf="http://www.w3.org/1999/02/22-rdf-syntax-ns#" xmlns:dc="http://purl.org/dc/elements/1.1/" inkscape:version="0.48.2 r9819" sodipodi:docname="bitcoin-logo-noshadow.svg"
	 xmlns="http://www.w3.org/2000/svg" xmlns:xlink="http://www.w3.org/1999/xlink" x="0px" y="0px" width="1024px" height="1024px"
	 viewBox="0 0 1024 1024" enable-background="new 0 0 1024 1024" xml:space="preserve">
<g>
	<circle fill="#F0CA5F" cx="475.772" cy="475.617" r="449.569"/>
	<path fill="#E9BD52" d="M475.777,26.033c248.3,0,449.564,201.259,449.564,449.57c0,248.308-201.265,449.584-449.564,449.584"/>
	<path fill="#FBF5AD" d="M850.671,475.603c0,207.058-167.85,374.913-374.894,374.913c-207.058,0-374.909-167.855-374.909-374.913
		c0-207.054,167.852-374.904,374.909-374.904C682.821,100.698,850.671,268.548,850.671,475.603z"/>
	<path fill="#FFEC89" d="M475.777,100.698c207.044,0,374.894,167.85,374.894,374.904c0,207.058-167.85,374.913-374.894,374.913"/>
	<g>
		<path fill="#D0A04C" d="M538.881,368.058l-63.104-63.046v134.736c7.047,5.124,15.592,8.021,24.775,8.021
			c12.883,0,25.686-5.455,35.178-14.964C554.393,414.13,555.767,385.088,538.881,368.058z"/>
		<path fill="#F0CA5F" d="M457.931,287.188l-4.084-3.204c-8.604-6.698-17.739-12.393-27.113-17.033
			c-23.016-11.484-47.905-17.361-74.07-17.361c-44.23,0-85.858,17.186-117.226,48.376c-31.361,31.196-48.679,72.35-48.736,115.813
			c-0.073,45.48,18.854,89.655,53.313,124.481c-0.71-8.375,0.771-16.802,4.369-24.453c2.329-4.912,5.41-9.368,9.271-13.202
			l130.506-130.536l-40.265-40.249l10.551-10.561l116.588,116.654c1.458,1.443,3.102,2.644,4.744,3.834V305.012L457.931,287.188z"/>
		<path fill="#F0CA5F" d="M264.146,511.087c-6.106,6.126-9.422,14.304-9.422,23.074c0,9.371,3.726,18.217,10.485,24.962
			c6.771,6.748,15.666,10.484,24.964,10.484c8.702,0,16.97-3.371,23.059-9.424l130.523-130.5l-49.087-49.118L264.146,511.087z"/>
		<path fill="#D0A04C" d="M716.111,297.98c-31.435-31.199-73.065-48.391-117.236-48.391c-42.302,0-82.25,15.714-113.098,44.413
			l63.578,63.583c22.771,22.784,21.356,61.251-3.096,85.797c-12.385,12.264-29.048,19.329-45.712,19.329
			c-8.772,0-17.178-1.958-24.77-5.576v64.375l36.512-36.498l14.586,14.585l-51.098,51.125v98.211l100.201-100.24l12.811,12.792
			L475.777,674.558v82.425c0.652,0.041,1.289,0.193,1.955,0.193c8.76,0,16.944-3.31,23.07-9.421l141.003-139.828
			c24.422-24.44,48.338-48.323,69.085-69.035c34.88-34.937,53.994-79.334,53.953-125.113
			C764.794,370.315,747.474,329.162,716.111,297.98z"/>
		<path fill="#F0CA5F" d="M451.701,698.644c-6.232,6.287-9.56,14.705-9.375,23.657c0.185,9.14,3.866,17.786,10.422,24.39
			c6.231,6.272,14.383,9.805,23.03,10.292v-82.425L451.701,698.644z"/>
		<path fill="#F0CA5F" d="M380.362,659.82c0,9.365,3.734,18.208,10.482,24.974c6.784,6.732,15.692,10.467,24.976,10.467
			c8.718,0,16.96-3.354,23.065-9.421l36.893-36.906v-98.211l-85.994,86.018C383.669,642.854,380.362,651.044,380.362,659.82z"/>
		<path fill="#F0CA5F" d="M456.537,442.48l-130.5,130.524c-6.218,6.278-9.616,14.715-9.368,23.654
			c0.192,9.142,3.867,17.786,10.43,24.388c6.7,6.747,15.606,10.476,24.983,10.476c8.752,0,16.946-3.313,23.058-9.433l100.639-100.58
			v-64.375c-5.607-2.67-10.779-6.213-15.269-10.681L456.537,442.48z"/>
	</g>
	<g>
		<path fill="#E9BD52" d="M538.881,368.058l-63.104-63.046v134.736c7.047,5.124,15.592,8.021,24.775,8.021
			c12.883,0,25.686-5.455,35.178-14.964C554.393,414.13,555.767,385.088,538.881,368.058z"/>
		<path fill="#F0CA5F" d="M457.931,287.188l-4.084-3.204c-8.604-6.698-17.739-12.393-27.113-17.033
			c-23.016-11.484-47.905-17.361-74.07-17.361c-44.23,0-85.858,17.186-117.226,48.376c-31.361,31.196-48.679,72.35-48.736,115.813
			c-0.073,45.48,18.854,89.655,53.313,124.481c-0.71-8.375,0.771-16.802,4.369-24.453c2.329-4.912,5.41-9.368,9.271-13.202
			l130.506-130.536l-40.265-40.249l10.551-10.561l116.588,116.654c1.458,1.443,3.102,2.644,4.744,3.834V305.012L457.931,287.188z"/>
		<path fill="#F0CA5F" d="M264.146,511.087c-6.106,6.126-9.422,14.304-9.422,23.074c0,9.371,3.726,18.217,10.485,24.962
			c6.771,6.748,15.666,10.484,24.964,10.484c8.702,0,16.97-3.371,23.059-9.424l130.523-130.5l-49.087-49.118L264.146,511.087z"/>
		<path fill="#E9BD52" d="M716.111,297.98c-31.435-31.199-73.065-48.391-117.236-48.391c-42.302,0-82.25,15.714-113.098,44.413
			l63.578,63.583c22.771,22.784,21.356,61.251-3.096,85.797c-12.385,12.264-29.048,19.329-45.712,19.329
			c-8.772,0-17.178-1.958-24.77-5.576v64.375l36.512-36.498l14.586,14.585l-51.098,51.125v98.211l100.201-100.24l12.811,12.792
			L475.777,674.558v82.425c0.652,0.041,1.289,0.193,1.955,0.193c8.76,0,16.944-3.31,23.07-9.421l141.003-139.828
			c24.422-24.44,48.338-48.323,69.085-69.035c34.88-34.937,53.994-79.334,53.953-125.113
			C764.794,370.315,747.474,329.162,716.111,297.98z"/>
		<path fill="#F0CA5F" d="M451.701,698.644c-6.232,6.287-9.56,14.705-9.375,23.657c0.185,9.14,3.866,17.786,10.422,24.39
			c6.231,6.272,14.383,9.805,23.03,10.292v-82.425L451.701,698.644z"/>
		<path fill="#F0CA5F" d="M380.362,659.82c0,9.365,3.734,18.208,10.482,24.974c6.784,6.732,15.692,10.467,24.976,10.467
			c8.718,0,16.96-3.354,23.065-9.421l36.893-36.906v-98.211l-85.994,86.018C383.669,642.854,380.362,651.044,380.362,659.82z"/>
		<path fill="#F0CA5F" d="M456.537,442.48l-130.5,130.524c-6.218,6.278-9.616,14.715-9.368,23.654
			c0.192,9.142,3.867,17.786,10.43,24.388c6.7,6.747,15.606,10.476,24.983,10.476c8.752,0,16.946-3.313,23.058-9.433l100.639-100.58
			v-64.375c-5.607-2.67-10.779-6.213-15.269-10.681L456.537,442.48z"/>
	</g>
</g>
</svg>
